<svg width="56" height="55" viewBox="0 0 56 55" fill="none" xmlns="http://www.w3.org/2000/svg">
<path d="M4 39.1667V8.22063C4 6.12366 5.61942 4.38265 7.7109 4.23109L37.0763 2.10317C37.997 2.03645 38.9124 2.29023 39.6674 2.82148L50.302 10.3051C51.3666 11.0542 52 12.2746 52 13.5763V47.6499C52 49.247 50.7487 50.5642 49.1536 50.646L16.1905 52.3364C14.196 52.4387 12.2814 51.5419 11.0832 49.9443L4.8 41.5667C4.28071 40.8743 4 40.0322 4 39.1667Z" fill="black"/>
<path d="M44.6204 10.5849L14.7024 12.426C13.9308 12.4735 13.1705 12.2212 12.5803 11.7218L8.32697 8.12282C7.84579 7.71567 8.10572 6.9298 8.73477 6.88986L37.0515 5.09197C37.9873 5.03255 38.9143 5.30379 39.6704 5.85831L44.8854 9.68264C45.2626 9.95927 45.0873 10.5562 44.6204 10.5849Z" fill="white"/>
<path d="M13.9689 46.9141L13.5282 17.392C13.5124 16.3305 14.3286 15.4416 15.3875 15.3671L46.8595 13.1507C48.0165 13.0693 49 13.9859 49 15.1458V45.111C49 46.1713 48.1726 47.0473 47.1141 47.1078L16.0827 48.881C14.947 48.9459 13.9858 48.0516 13.9689 46.9141Z" fill="white"/>
<path d="M17.3285 31.2364C17.2796 29.3029 19.6546 27.4094 23.3381 26.1793C22.3859 22.4173 22.6905 19.3974 24.3438 18.3913C24.7248 18.1554 25.1742 18.0369 25.668 18.0245L25.7015 19.3511C25.4279 19.358 25.2091 19.4171 25.0272 19.5229C24.2299 20.0074 23.9235 21.7832 24.2546 24.0488C24.3342 24.6064 24.4562 25.1926 24.6022 25.7902C25.761 25.4752 27.0286 25.2229 28.3635 25.0463C29.1389 23.9254 29.9465 22.9049 30.7632 22.0092C28.7782 20.2556 26.9329 19.314 25.6954 19.3453L25.6619 18.0187C27.2979 17.9773 29.4691 19.0892 31.6857 21.0572C33.8003 18.9917 35.9128 17.7834 37.5489 17.7421L37.5824 19.0687C36.3509 19.0999 34.5493 20.1276 32.6552 21.9673C33.5101 22.8208 34.3681 23.7932 35.1872 24.8738C36.5353 24.9826 37.814 25.1706 38.9874 25.4326C39.1091 24.8342 39.1957 24.2546 39.2531 23.6996C39.4753 21.4199 39.0856 19.6618 38.2706 19.2121C38.0894 19.1095 37.8562 19.0678 37.5825 19.0747L37.549 17.748C38.0487 17.7354 38.5036 17.8311 38.9019 18.0472C40.598 18.9687 41.0487 21.9636 40.2814 25.7571C44.0106 26.8058 46.4661 28.5713 46.5149 30.4988C46.5637 32.4323 44.1887 34.3258 40.5052 35.5559C41.4575 39.3179 41.1528 42.3378 39.4995 43.3439C39.1185 43.5798 38.6691 43.6983 38.1694 43.7109C36.5334 43.7522 34.3622 42.6403 32.1456 40.6723C30.0309 42.7379 27.9184 43.9461 26.2824 43.9875C25.7827 44.0001 25.3279 43.9044 24.9295 43.6883C23.2334 42.7668 22.7827 39.7719 23.55 35.9784C19.8329 34.9353 17.3772 33.1639 17.3285 31.2364ZM24.974 27.0726C25.2135 27.8344 25.5071 28.6188 25.8365 29.4022C26.0684 28.9201 26.3121 28.4377 26.5797 27.9547C26.8414 27.4718 27.1211 27.0004 27.4012 26.5409C26.5596 26.6872 25.7485 26.8625 24.974 27.0726ZM27.8588 33.3395C28.3431 34.1309 28.8383 34.8804 29.3499 35.5759C30.2383 35.6308 31.1377 35.6497 32.0419 35.6269C32.9402 35.6042 33.8375 35.5398 34.7162 35.4462C35.1921 34.7258 35.6549 33.9581 36.0987 33.1492C36.5312 32.3584 36.9217 31.5568 37.2763 30.7501C36.8873 29.9623 36.4507 29.1756 35.9849 28.4076C35.5005 27.6162 35.0054 26.8667 34.4937 26.1712C33.6053 26.1163 32.706 26.0973 31.8017 26.1202C30.9034 26.1429 30.0061 26.2072 29.1274 26.3009C28.6516 27.0213 28.1888 27.789 27.7449 28.5979C27.3124 29.3887 26.922 30.1903 26.5673 30.9969C26.9622 31.7847 27.3929 32.5715 27.8588 33.3395ZM25.9176 32.6147C25.6165 33.42 25.363 34.2241 25.1565 35.0032C25.9406 35.1739 26.7657 35.3138 27.6196 35.4172C27.3165 34.9665 27.0131 34.5039 26.7273 34.0289C26.4416 33.5599 26.1736 33.0845 25.9176 32.6147ZM32.1105 38.81C32.6493 38.2249 33.1865 37.5743 33.7162 36.8645C33.1814 36.9018 32.6345 36.9335 32.0813 36.9474C31.522 36.9616 30.9685 36.9637 30.4263 36.9476C30.9794 37.6301 31.5487 38.2527 32.1105 38.81ZM36.4481 35.1941C37.2897 35.0478 38.1008 34.8725 38.8753 34.6625C38.6358 33.9006 38.3422 33.1163 38.0128 32.3329C37.7809 32.815 37.5371 33.2974 37.2696 33.7803C37.002 34.2633 36.7281 34.7346 36.4481 35.1941ZM31.7388 22.9251C31.2 23.5102 30.6628 24.1607 30.1331 24.8706C30.6679 24.8333 31.2148 24.8016 31.768 24.7876C32.3272 24.7735 32.8808 24.7714 33.4229 24.7874C32.8699 24.1049 32.3006 23.4824 31.7388 22.9251ZM36.2297 26.3179C36.5328 26.7686 36.8362 27.2312 37.122 27.7061C37.4077 28.1752 37.6755 28.6446 37.9315 29.1144C38.2326 28.3091 38.4861 27.505 38.6926 26.7259C37.9086 26.5612 37.0836 26.4213 36.2297 26.3179ZM41.8019 33.6301C43.8852 32.6786 45.2177 31.4662 45.1941 30.5322C45.1705 29.5982 43.7783 28.4487 41.6497 27.6096C41.1326 27.4024 40.5684 27.2202 39.9867 27.0504C39.677 28.225 39.2615 29.4499 38.7397 30.7072C39.3182 31.9308 39.789 33.1273 40.1515 34.279C40.7358 34.0797 41.2899 33.8633 41.8019 33.6301ZM38.8161 42.2123C39.6134 41.7278 39.9198 39.952 39.5887 37.6864C39.5091 37.1288 39.3872 36.5426 39.2411 35.945C38.0823 36.26 36.8147 36.5123 35.4798 36.6889C34.7045 37.8098 33.8968 38.8303 33.0801 39.726C35.0651 41.4796 36.9105 42.4212 38.1479 42.3899C38.4155 42.3772 38.6402 42.3179 38.8161 42.2123ZM24.5902 38.0356C24.368 40.3153 24.7577 42.0734 25.5727 42.5231C25.7539 42.6257 25.9871 42.6674 26.2608 42.6605C27.4923 42.6294 29.2938 41.6016 31.188 39.7619C30.333 38.9085 29.475 37.936 28.656 36.8554C27.3079 36.7466 26.0292 36.5587 24.8558 36.2966C24.7342 36.9009 24.6417 37.4807 24.5902 38.0356ZM22.1995 34.1255C22.7167 34.3326 23.2809 34.5148 23.8626 34.6847C24.1723 33.5101 24.5878 32.2852 25.1096 31.0278C24.531 29.8042 24.0603 28.6077 23.6978 27.456C23.1135 27.6553 22.5594 27.8717 22.0414 28.1051C19.9582 29.0566 18.6256 30.269 18.6492 31.203C18.6787 32.1369 20.071 33.2863 22.1995 34.1255Z" fill="#595959"/>
<path d="M31.9963 33.5862C30.4948 33.6241 29.2468 32.4377 29.2089 30.9361C29.1709 29.4346 30.3574 28.1866 31.8589 28.1487C33.3604 28.1107 34.6084 29.2972 34.6464 30.7987C34.6843 32.3003 33.4978 33.5482 31.9963 33.5862Z" fill="#595959"/>
</svg>
